<svg width="26" height="47" viewBox="0 0 26 47" fill="none" xmlns="http://www.w3.org/2000/svg">
<path d="M3.59371 0.694171L3.59368 0.694158C3.10618 0.455472 2.54754 0.451749 2.05965 0.602255C1.57102 0.752987 1.10969 1.07141 0.82485 1.53701C0.509979 2.0517 0.409065 2.81015 0.588413 3.38291C0.614408 3.46593 0.656221 3.53505 0.683105 3.57671C0.714584 3.62549 0.752621 3.67715 0.794477 3.73052C0.878418 3.83753 0.996517 3.97513 1.15306 4.14908C1.46729 4.49824 1.95882 5.01853 2.69468 5.77986C4.16783 7.30398 6.6373 9.81172 10.6668 13.8864L20.1691 23.4953L10.6658 33.1045C5.78985 38.0349 3.32254 40.5305 2.06409 41.8475C1.43893 42.5017 1.09585 42.8817 0.903427 43.1307C0.805477 43.2575 0.732473 43.3681 0.680616 43.4778C0.624529 43.5964 0.603756 43.6926 0.590052 43.7597M3.59371 0.694171L1.07994 43.8598M3.59371 0.694171C3.65327 0.72334 3.70297 0.762492 3.71963 0.775616L3.72116 0.776821C3.74798 0.797911 3.77735 0.822691 3.80731 0.848754C3.86782 0.901394 3.94537 0.972045 4.03695 1.05742C4.22089 1.22889 4.47328 1.47084 4.78287 1.77177C5.40266 2.37422 6.2594 3.22057 7.27238 4.22913C9.29873 6.24664 11.9547 8.91759 14.6002 11.5943C17.2457 14.2711 19.8817 16.9546 21.8681 18.9973C22.8611 20.0184 23.6928 20.8805 24.2826 21.5019C24.5772 21.8123 24.8133 22.0646 24.9796 22.2475C25.0623 22.3385 25.1307 22.4156 25.1813 22.4754C25.2062 22.5049 25.2304 22.5345 25.251 22.5617L25.2525 22.5637C25.2635 22.578 25.3088 22.6374 25.3385 22.7101M3.59371 0.694171L25.3385 22.7101M0.590052 43.7597L1.07994 43.8598M0.590052 43.7597C0.590055 43.7597 0.590059 43.7597 0.590063 43.7597L1.07994 43.8598M0.590052 43.7597C0.376202 44.8062 0.789509 45.7572 1.73276 46.232M1.07994 43.8598C0.907202 44.705 1.23352 45.4209 1.95763 45.7854M1.73276 46.232L1.95763 45.7854M1.73276 46.232C2.0548 46.3941 2.37256 46.4981 2.71434 46.5C3.0574 46.5019 3.37334 46.4007 3.69118 46.24L3.69123 46.2399C3.77317 46.1985 3.85839 46.1262 3.90305 46.0883L3.90484 46.0868C3.96918 46.0322 4.04994 45.9601 4.14412 45.8738C4.3332 45.7004 4.58897 45.4582 4.90024 45.1585C5.52346 44.5584 6.37798 43.7195 7.38468 42.7218C9.39854 40.7259 12.0266 38.0893 14.6425 35.4452C17.2583 32.8011 19.8631 30.1483 21.8305 28.12C22.8139 27.1061 23.6393 26.2469 24.2276 25.6224C24.5214 25.3106 24.7582 25.0549 24.9266 24.8669C25.0105 24.7733 25.0804 24.693 25.133 24.6293C25.1591 24.5977 25.1841 24.5662 25.2057 24.5369L25.206 24.5364C25.2202 24.5172 25.2584 24.4652 25.2863 24.4024C25.5473 23.8155 25.5746 23.288 25.3385 22.7101M1.73276 46.232C1.73278 46.232 1.73281 46.232 1.73283 46.232L1.95763 45.7854M1.95763 45.7854L25.3385 22.7101" fill="white" stroke="white"/>
</svg>
